<svg xmlns="http://www.w3.org/2000/svg" viewBox="0 0 32 32">
  <defs>
    <linearGradient id="bg" x1="0%" y1="0%" x2="100%" y2="100%">
      <stop offset="0%" style="stop-color:#2563eb"/>
      <stop offset="100%" style="stop-color:#60a5fa"/>
    </linearGradient>
  </defs>
  <rect width="32" height="32" rx="8" fill="url(#bg)"/>
  <path d="M16 7c-3.866 0-7 3.134-7 7 0 1.654.576 3.174 1.538 4.37L16 25l5.462-6.63A6.958 6.958 0 0023 14c0-3.866-3.134-7-7-7zm0 10a3 3 0 110-6 3 3 0 010 6z" fill="none" stroke="white" stroke-width="0"/>
  <path d="M16 8a5.5 5.5 0 00-5.5 5.5c0 1.08.316 2.085.858 2.935L16 23l4.642-5.565A5.467 5.467 0 0021.5 14.5 5.5 5.5 0 0016 9z" fill="none"/>
  <g transform="translate(9, 9) scale(0.58)">
    <path d="M19.5 12.572l-7.5 7.428-7.5-7.428A5 5 0 0112 6.006a5 5 0 017.5 6.572" fill="none" stroke="white" stroke-width="2.5" stroke-linecap="round" stroke-linejoin="round"/>
    <path d="M12 10v4M10 12h4" stroke="white" stroke-width="2" stroke-linecap="round"/>
  </g>
</svg>
